# xmcd CD database file generated by LOLA_Freedb v0.9beta0
# 
# Track frame offsets:
#      150
#      15633
#      32474
#      51443
#      67466
#      81701
#      88655
#      99484
#      114021
#      137661
#      156750
# 
# Disc length: 2352 seconds
# 
# Revision: 0 
# Processed by: cddbd v1.5.2PL0 Copyright (c) Steve Scherf et al.
# Submitted via: LOLA_Freedb v0.9beta0
# 
DISCID=90092e0b
DTITLE=Bergen Bluesband - Bergen Bluesband
DYEAR=1980
DGENRE=
TTITLE0=Bergen Bluesband - Jump 'n shout 'n Dnce
TTITLE1=Bergen Bluesband - Truckdriver
TTITLE2=Bergen Bluesband - Airport Blues
TTITLE3=Bergen Bluesband - Sixteen Months of HArd Work
TTITLE4=Bergen Bluesband - Brand New Microfon
TTITLE5=Bergen Bluesband - Hungry John
TTITLE6=Bergen Bluesband - Depression
TTITLE7=Bergen Bluesband - Hey Mama
TTITLE8=Bergen Bluesband - Talkin' 'Bout Blues
TTITLE9=Bergen Bluesband - Bad Condition
TTITLE10=Bergen Bluesband - Behind My Back
EXTD=
EXTT0=
EXTT1=
EXTT2=
EXTT3=
EXTT4=
EXTT5=
EXTT6=
EXTT7=
EXTT8=
EXTT9=
EXTT10=
PLAYORDER=
